<?xml version="1.0" encoding="utf-8"?>
<!-- Generator: Adobe Illustrator 23.0.3, SVG Export Plug-In . SVG Version: 6.00 Build 0)  -->
<svg version="1.1" id="Layer_1" xmlns="http://www.w3.org/2000/svg" xmlns:xlink="http://www.w3.org/1999/xlink" x="0px" y="0px"
	 viewBox="0 0 596 936" style="enable-background:new 0 0 596 936;" xml:space="preserve">
<style type="text/css">
	.st0{fill:#F5620A;}
</style>
<path class="st0" d="M263.9,600.5l224.1-105.7c23.8-11.2,23.3-45.2-0.8-55.7L256.3,337.8c-63.4-27.9-136.4,3.1-164.3,70.8
	c-7.2,17.5-11.5,36.6-12.4,56.4c0,1.2-0.1,2.4-0.1,3.7C77.7,571.8,176.5,641.7,263.9,600.5z M430.8,468.1
	c-0.2,15.3-12.5,26.6-24.2,25.5c-9.7-0.9-19.5-10.3-20.4-23.6c-1-14.6,9.2-27.2,20.4-28.3C418.7,440.4,431,452.7,430.8,468.1z
	 M143.3,502.6c-12-26.4-12-64.2,14.5-90.3c17-16.7,45.4-29.2,72.6-24.9c40,6.4,42,45.3,91.6,53.8c19.1,3.3,33.8,0.4,42.6,10.8
	c10.1,11.9,7.4,34.9-5.4,43.9c-18.7,13-57.3-5-76.2-17.4c-24.6-16.1-27.9-31.6-48.1-34c-12.2-1.4-29.5,1.9-35.7,13.3
	c-6.1,11.2,0.7,26.1,10,34c12.5,10.6,24.4,4,34.8,14.1c9.9,9.6,11.8,27.9,2.7,38.9c-7.7,9.4-21.6,10.5-25.4,10.8
	C190.8,557.9,157,532.8,143.3,502.6z"/>
</svg>
